<svg width="340" height="306" viewBox="0 0 340 306" fill="none" xmlns="http://www.w3.org/2000/svg">
<g filter="url(#filter0_d_625_48)">
<g clip-path="url(#clip0_625_48)">
<rect x="80" y="30" width="180" height="146" rx="30" fill="white"/>
<path d="M113.303 50.0066C108.732 53.7966 99.7665 52.8588 97.6885 48.1311C97.5698 47.8967 97.5104 47.6232 97.451 47.3887C102.26 46.6854 106.95 44.3802 107.366 41.6061C107.722 39.1054 103.863 38.3631 101.31 39.7697C98.2822 41.4498 96.1449 43.9113 95.9668 46.5291C92.8795 46.8026 89.8516 46.2556 88.1892 44.2629C85.3988 40.9028 89.1391 36.3703 94.1263 35.0419C94.6606 34.9247 94.4231 34.3777 93.8888 34.4949C87.0018 35.7843 83.4395 42.114 88.1298 45.8649C89.9703 47.3106 92.9389 47.7794 96.0261 47.545C96.4417 50.2019 99.5884 52.3118 103.329 53.1323C107.663 54.07 111.641 52.7025 114.194 50.4754C114.609 50.1237 113.719 49.694 113.303 50.0066ZM100.004 42.114C100.954 41.2544 102.201 40.2776 103.804 39.926C105.347 39.5743 105.882 40.9809 105.941 41.6061C106 42.3875 105.169 43.0908 104.397 43.6378C102.794 44.849 100.123 45.904 97.3917 46.3728C97.5698 44.849 98.6978 43.3643 100.004 42.114Z" fill="#9B51E0"/>
<path d="M116.628 48.5609C114.965 48.5609 113.244 48.639 111.641 48.9125C110.988 49.0297 111.285 49.6158 111.938 49.5377C113.244 49.3814 114.609 49.4205 115.916 49.4595C115.856 49.9674 115.797 50.5144 115.678 51.0224C115.559 51.4131 115.144 51.9992 115.5 52.3899C115.678 52.5853 115.975 52.5853 116.272 52.5071C116.984 52.3117 116.984 51.4912 117.103 51.0614C117.281 50.3581 117.34 49.6939 117.34 48.9905C117.34 48.7562 116.984 48.5609 116.628 48.5609Z" fill="#9B51E0"/>
<path d="M246.401 81.6121H245.924V81.2987C245.924 81.099 245.678 80.9371 245.375 80.9371C245.072 80.9371 244.826 81.099 244.826 81.2987V81.6121H244.349C244.046 81.6121 243.8 81.7739 243.8 81.9736C243.8 82.1733 244.046 82.3352 244.349 82.3352H244.826V82.6486C244.826 82.8483 245.072 83.0101 245.375 83.0101C245.678 83.0101 245.924 82.8483 245.924 82.6486V82.3352H246.401C246.704 82.3352 246.95 82.1733 246.95 81.9736C246.95 81.7739 246.704 81.6121 246.401 81.6121Z" fill="#31BEBE"/>
<path d="M233 73.2373C232.007 73.2373 231.2 72.7059 231.2 72.0527C231.2 71.3996 232.007 70.8682 233 70.8682C233.992 70.8682 234.8 71.3996 234.8 72.0527C234.8 72.7059 233.992 73.2373 233 73.2373Z" fill="#FF6666"/>
<path d="M103.195 87.1654C104.076 87.1654 104.791 86.6993 104.791 86.1243C104.791 85.5493 104.076 85.0832 103.195 85.0832C102.314 85.0832 101.6 85.5493 101.6 86.1243C101.6 86.6993 102.314 87.1654 103.195 87.1654Z" fill="#AD77E3"/>
<path d="M219.908 35.5992H219.092V35.062C219.092 34.7197 218.67 34.4422 218.15 34.4422C217.63 34.4422 217.208 34.7197 217.208 35.062V35.5992H216.392C215.872 35.5992 215.45 35.8768 215.45 36.2191C215.45 36.5614 215.872 36.8389 216.392 36.8389H217.208V37.3761C217.208 37.7184 217.63 37.996 218.15 37.996C218.67 37.996 219.092 37.7184 219.092 37.3761V36.8389H219.908C220.428 36.8389 220.85 36.5614 220.85 36.2191C220.85 35.8768 220.428 35.5992 219.908 35.5992Z" fill="#FABE2C"/>
<path d="M107.858 63.1408H107.042V62.6036C107.042 62.2613 106.62 61.9838 106.1 61.9838C105.58 61.9838 105.158 62.2613 105.158 62.6036V63.1408H104.342C103.822 63.1408 103.4 63.4183 103.4 63.7606C103.4 64.103 103.822 64.3805 104.342 64.3805H105.158V64.9177C105.158 65.26 105.58 65.5375 106.1 65.5375C106.62 65.5375 107.042 65.26 107.042 64.9177V64.3805H107.858C108.378 64.3805 108.8 64.103 108.8 63.7606C108.8 63.4183 108.378 63.1408 107.858 63.1408Z" fill="#FABE2C"/>
<path d="M199.91 67.7053H198.22V66.0295C198.22 64.9617 197.347 64.096 196.271 64.096C195.194 64.096 194.321 64.9617 194.321 66.0295V67.7053H192.631C191.555 67.7053 190.682 68.571 190.682 69.6389C190.682 70.7067 191.555 71.5724 192.631 71.5724H194.321V73.2482C194.321 74.316 195.194 75.1817 196.271 75.1817C197.347 75.1817 198.22 74.316 198.22 73.2482V71.5724H199.91C200.987 71.5724 201.86 70.7067 201.86 69.6389C201.86 68.571 200.987 67.7053 199.91 67.7053Z" fill="#31BEBE"/>
<path d="M140.12 99.9316C141.197 99.9316 142.07 99.0659 142.07 97.998C142.07 96.9301 141.197 96.0644 140.12 96.0644C139.043 96.0644 138.17 96.9301 138.17 97.998C138.17 99.0659 139.043 99.9316 140.12 99.9316Z" fill="#5ED8D3"/>
<path d="M170.275 73.1192C171.352 73.1192 172.225 72.2535 172.225 71.1856C172.225 70.1177 171.352 69.252 170.275 69.252C169.198 69.252 168.325 70.1177 168.325 71.1856C168.325 72.2535 169.198 73.1192 170.275 73.1192Z" fill="#FED843"/>
<path d="M187.952 84.4627C189.029 84.4627 189.902 83.597 189.902 82.5291C189.902 81.4612 189.029 80.5955 187.952 80.5955C186.875 80.5955 186.002 81.4612 186.002 82.5291C186.002 83.597 186.875 84.4627 187.952 84.4627Z" fill="#AD77E3"/>
<path d="M172.225 71.1856C172.225 70.1176 171.352 69.252 170.275 69.252V73.1192C171.352 73.1192 172.225 72.2535 172.225 71.1856Z" fill="#FABE2C"/>
<path d="M143.239 75.1817C139.871 75.1817 137.13 72.4639 137.13 69.1232C137.13 65.7825 139.871 63.0647 143.239 63.0647C146.608 63.0647 149.348 65.7825 149.348 69.1232C149.348 72.4639 146.608 75.1817 143.239 75.1817Z" fill="#FF6666"/>
</g>
</g>
<defs>
<filter id="filter0_d_625_48" x="0" y="0" width="340" height="306" filterUnits="userSpaceOnUse" color-interpolation-filters="sRGB">
<feFlood flood-opacity="0" result="BackgroundImageFix"/>
<feColorMatrix in="SourceAlpha" type="matrix" values="0 0 0 0 0 0 0 0 0 0 0 0 0 0 0 0 0 0 127 0" result="hardAlpha"/>
<feOffset dy="50"/>
<feGaussianBlur stdDeviation="40"/>
<feColorMatrix type="matrix" values="0 0 0 0 0 0 0 0 0 0 0 0 0 0 0 0 0 0 0.05 0"/>
<feBlend mode="normal" in2="BackgroundImageFix" result="effect1_dropShadow_625_48"/>
<feBlend mode="normal" in="SourceGraphic" in2="effect1_dropShadow_625_48" result="shape"/>
</filter>
<clipPath id="clip0_625_48">
<rect x="80" y="30" width="180" height="146" rx="30" fill="white"/>
</clipPath>
</defs>
</svg>
