<svg width="310" height="306" viewBox="0 0 310 306" fill="none" xmlns="http://www.w3.org/2000/svg">
<g filter="url(#filter0_d_625_48)">
<g clip-path="url(#clip0_625_48)">
<rect x="80" y="30" width="150" height="146" rx="30" fill="white"/>
<path d="M113.364 53.6565C108.782 59.4304 99.7972 58.0018 97.7146 50.7993C97.5956 50.4421 97.5361 50.0254 97.4766 49.6683C102.296 48.5968 106.997 45.0849 107.414 40.8586C107.771 37.049 103.903 35.918 101.344 38.0609C98.3096 40.6205 96.1675 44.3706 95.989 48.3586C92.8948 48.7753 89.8602 47.942 88.1941 44.9062C85.3974 39.7871 89.1461 32.8821 94.1444 30.8583C94.6799 30.6797 94.4419 29.8464 93.9064 30.0249C87.004 31.9894 83.4338 41.6324 88.1346 47.3467C89.9792 49.5492 92.9543 50.2635 96.0485 49.9063C96.465 53.954 99.6187 57.1684 103.367 58.4184C107.711 59.847 111.698 57.7637 114.256 54.3707C114.673 53.835 113.78 53.1803 113.364 53.6565ZM100.035 41.6324C100.987 40.3229 102.237 38.8347 103.843 38.299C105.39 37.7633 105.926 39.9062 105.985 40.8586C106.045 42.0491 105.212 43.1205 104.438 43.9539C102.832 45.7991 100.154 47.4063 97.417 48.1205C97.5956 45.7991 98.7261 43.5372 100.035 41.6324Z" fill="#9B51E0"/>
<path d="M116.696 51.454C115.03 51.454 113.304 51.5731 111.698 51.9898C111.043 52.1683 111.341 53.0612 111.995 52.9422C113.304 52.7041 114.673 52.7636 115.982 52.8231C115.923 53.5968 115.863 54.4302 115.744 55.204C115.625 55.7993 115.208 56.6921 115.565 57.2874C115.744 57.5851 116.042 57.5851 116.339 57.466C117.053 57.1683 117.053 55.9183 117.172 55.2635C117.351 54.192 117.41 53.1802 117.41 52.1086C117.41 51.7517 117.053 51.454 116.696 51.454Z" fill="#9B51E0"/>
<path d="M222.359 131.12H221.803V130.703C221.803 130.437 221.515 130.221 221.161 130.221C220.807 130.221 220.52 130.437 220.52 130.703V131.12H219.964C219.609 131.12 219.322 131.335 219.322 131.601C219.322 131.866 219.609 132.082 219.964 132.082H220.52V132.499C220.52 132.764 220.807 132.98 221.161 132.98C221.515 132.98 221.803 132.764 221.803 132.499V132.082H222.359C222.713 132.082 223 131.866 223 131.601C223 131.335 222.713 131.12 222.359 131.12Z" fill="#31BEBE"/>
<path d="M211.047 115.51C210.033 115.51 209.208 114.685 209.208 113.671C209.208 112.657 210.033 111.832 211.047 111.832C212.061 111.832 212.886 112.657 212.886 113.671C212.886 114.685 212.061 115.51 211.047 115.51Z" fill="#FF6666"/>
<path d="M103.929 142.174C104.691 142.174 105.309 141.351 105.309 140.336C105.309 139.32 104.691 138.497 103.929 138.497C103.168 138.497 102.55 139.32 102.55 140.336C102.55 141.351 103.168 142.174 103.929 142.174Z" fill="#AD77E3"/>
<path d="M200.89 46.5076H200.056V45.6736C200.056 45.1422 199.625 44.7114 199.094 44.7114C198.562 44.7114 198.132 45.1422 198.132 45.6736V46.5076H197.298C196.766 46.5076 196.335 46.9384 196.335 47.4698C196.335 48.0012 196.766 48.432 197.298 48.432H198.132V49.266C198.132 49.7974 198.562 50.2282 199.094 50.2282C199.625 50.2282 200.056 49.7974 200.056 49.266V48.432H200.89C201.421 48.432 201.852 48.0012 201.852 47.4698C201.852 46.9384 201.421 46.5076 200.89 46.5076Z" fill="#FABE2C"/>
<path d="M108.783 97.3774H107.81V96.4045C107.81 95.7845 107.308 95.2819 106.688 95.2819C106.068 95.2819 105.565 95.7845 105.565 96.4045V97.3774H104.592C103.972 97.3774 103.47 97.88 103.47 98.5C103.47 99.12 103.972 99.6226 104.592 99.6226H105.565V100.596C105.565 101.215 106.068 101.718 106.688 101.718C107.308 101.718 107.81 101.215 107.81 100.596V99.6226H108.783C109.403 99.6226 109.906 99.12 109.906 98.5C109.906 97.88 109.403 97.3774 108.783 97.3774Z" fill="#FABE2C"/>
<path d="M189.653 62.395H187.846V60.5882C187.846 59.4368 186.913 58.5034 185.762 58.5034C184.61 58.5034 183.677 59.4368 183.677 60.5882V62.395H181.87C180.719 62.395 179.785 63.3285 179.785 64.4799C179.785 65.6312 180.719 66.5647 181.87 66.5647H183.677V68.3715C183.677 69.5229 184.61 70.4564 185.762 70.4564C186.913 70.4564 187.846 69.5229 187.846 68.3715V66.5647H189.653C190.805 66.5647 191.738 65.6312 191.738 64.4799C191.738 63.3285 190.805 62.395 189.653 62.395Z" fill="#31BEBE"/>
<path d="M136.111 76.8926C132.815 76.8926 130.134 74.2116 130.134 70.9161C130.134 67.6206 132.815 64.9396 136.111 64.9396C139.406 64.9396 142.087 67.6206 142.087 70.9161C142.087 74.2116 139.406 76.8926 136.111 76.8926Z" fill="#FF6666"/>
<path d="M95.2285 74.6093H93.5388V72.9336C93.5388 71.8657 92.6658 71 91.5891 71C90.5123 71 89.6394 71.8657 89.6394 72.9336V74.6093H87.9497C86.8729 74.6093 86 75.475 86 76.5429C86 77.6107 86.8729 78.4765 87.9497 78.4765H89.6394V80.1522C89.6394 81.2201 90.5123 82.0858 91.5891 82.0858C92.6658 82.0858 93.5388 81.2201 93.5388 80.1522V78.4765H95.2285C96.3052 78.4765 97.1782 77.6107 97.1782 76.5429C97.1782 75.475 96.3052 74.6093 95.2285 74.6093Z" fill="#31BEBE"/>
<path d="M221.109 47.117C217.74 47.117 215 44.3992 215 41.0585C215 37.7178 217.74 35 221.109 35C224.478 35 227.218 37.7178 227.218 41.0585C227.218 44.3992 224.478 47.117 221.109 47.117Z" fill="#FF6666"/>
<path d="M143.95 46.8672C145.027 46.8672 145.899 46.0015 145.899 44.9336C145.899 43.8657 145.027 43 143.95 43C142.873 43 142 43.8657 142 44.9336C142 46.0015 142.873 46.8672 143.95 46.8672Z" fill="#FED843"/>
<path d="M200.95 98.8672C202.027 98.8672 202.899 98.0015 202.899 96.9336C202.899 95.8657 202.027 95 200.95 95C199.873 95 199 95.8657 199 96.9336C199 98.0015 199.873 98.8672 200.95 98.8672Z" fill="#FED843"/>
<path d="M89.9497 122.867C91.0265 122.867 91.8994 122.001 91.8994 120.934C91.8994 119.866 91.0265 119 89.9497 119C88.8729 119 88 119.866 88 120.934C88 122.001 88.8729 122.867 89.9497 122.867Z" fill="#FED843"/>
<path d="M145.899 44.9336C145.899 43.8656 145.026 43 143.95 43V46.8672C145.026 46.8672 145.899 46.0015 145.899 44.9336Z" fill="#FABE2C"/>
<path d="M202.899 96.9336C202.899 95.8656 202.026 95 200.95 95V98.8672C202.026 98.8672 202.899 98.0015 202.899 96.9336Z" fill="#FABE2C"/>
<path d="M91.8994 120.934C91.8994 119.866 91.0265 119 89.9497 119V122.867C91.0265 122.867 91.8994 122.001 91.8994 120.934Z" fill="#FABE2C"/>
<path d="M167.95 57.8672C169.027 57.8672 169.899 57.0015 169.899 55.9336C169.899 54.8657 169.027 54 167.95 54C166.873 54 166 54.8657 166 55.9336C166 57.0015 166.873 57.8672 167.95 57.8672Z" fill="#AD77E3"/>
<path d="M208.95 73.8672C210.027 73.8672 210.899 73.0015 210.899 71.9336C210.899 70.8657 210.027 70 208.95 70C207.873 70 207 70.8657 207 71.9336C207 73.0015 207.873 73.8672 208.95 73.8672Z" fill="#AD77E3"/>
<path d="M183.95 43.8672C185.027 43.8672 185.899 43.0015 185.899 41.9336C185.899 40.8657 185.027 40 183.95 40C182.873 40 182 40.8657 182 41.9336C182 43.0015 182.873 43.8672 183.95 43.8672Z" fill="#AD77E3"/>
</g>
</g>
<defs>
<filter id="filter0_d_625_48" x="0" y="0" width="310" height="306" filterUnits="userSpaceOnUse" color-interpolation-filters="sRGB">
<feFlood flood-opacity="0" result="BackgroundImageFix"/>
<feColorMatrix in="SourceAlpha" type="matrix" values="0 0 0 0 0 0 0 0 0 0 0 0 0 0 0 0 0 0 127 0" result="hardAlpha"/>
<feOffset dy="50"/>
<feGaussianBlur stdDeviation="40"/>
<feColorMatrix type="matrix" values="0 0 0 0 0 0 0 0 0 0 0 0 0 0 0 0 0 0 0.05 0"/>
<feBlend mode="normal" in2="BackgroundImageFix" result="effect1_dropShadow_625_48"/>
<feBlend mode="normal" in="SourceGraphic" in2="effect1_dropShadow_625_48" result="shape"/>
</filter>
<clipPath id="clip0_625_48">
<rect x="80" y="30" width="150" height="146" rx="30" fill="white"/>
</clipPath>
</defs>
</svg>
