<svg width="161" height="79" viewBox="0 0 161 79" fill="none" xmlns="http://www.w3.org/2000/svg">
<path d="M27.3031 15.5644C22.7315 19.3544 13.7665 18.4166 11.6885 13.6889C11.5698 13.4545 11.5104 13.181 11.451 12.9465C16.2601 12.2432 20.9504 9.93798 21.366 7.16386C21.7222 4.66325 17.8631 3.92088 15.3101 5.32747C12.2822 7.00757 10.1449 9.46912 9.96677 12.0869C6.87949 12.3604 3.85157 11.8134 2.18919 9.8207C-0.60124 6.46057 3.13912 1.92814 8.12628 0.599687C8.66061 0.482471 8.42313 -0.0645386 7.88879 0.0526777C1.00177 1.34212 -2.56048 7.6718 2.12982 11.4227C3.97032 12.8684 6.93886 13.3372 10.0261 13.1028C10.4417 15.7597 13.5884 17.8696 17.3287 18.6901C21.6627 19.6278 25.6406 18.2603 28.1935 16.0332C28.6092 15.6815 27.7186 15.2518 27.3031 15.5644ZM14.004 7.6718C14.9539 6.81221 16.2007 5.83541 17.8037 5.48376C19.3473 5.13211 19.8817 6.53871 19.941 7.16386C20.0003 7.9453 19.1692 8.6486 18.3973 9.19561C16.7944 10.4068 14.1227 11.4618 11.3917 11.9306C11.5698 10.4068 12.6978 8.92211 14.004 7.6718Z" fill="#9B51E0"/>
<path d="M30.6279 14.1187C28.9655 14.1187 27.2437 14.1968 25.6407 14.4703C24.9877 14.5875 25.2845 15.1736 25.9377 15.0955C27.2438 14.9392 28.6094 14.9783 29.9155 15.0173C29.8562 15.5252 29.7968 16.0722 29.678 16.5802C29.5593 16.9709 29.1437 17.557 29.4999 17.9477C29.678 18.1431 29.9749 18.1431 30.2718 18.0649C30.9842 17.8695 30.9842 17.049 31.1029 16.6192C31.2811 15.9159 31.3403 15.2517 31.3403 14.5483C31.3403 14.314 30.9841 14.1187 30.6279 14.1187Z" fill="#9B51E0"/>
<path d="M160.401 47.1699H159.924V46.8565C159.924 46.6568 159.678 46.4949 159.375 46.4949C159.072 46.4949 158.826 46.6568 158.826 46.8565V47.1699H158.349C158.046 47.1699 157.8 47.3318 157.8 47.5314C157.8 47.7311 158.046 47.893 158.349 47.893H158.826V48.2064C158.826 48.4061 159.072 48.568 159.375 48.568C159.678 48.568 159.924 48.4061 159.924 48.2064V47.893H160.401C160.704 47.893 160.95 47.7311 160.95 47.5314C160.95 47.3318 160.704 47.1699 160.401 47.1699Z" fill="#31BEBE"/>
<path d="M147 38.7951C146.007 38.7951 145.2 38.2637 145.2 37.6105C145.2 36.9574 146.007 36.426 147 36.426C147.992 36.426 148.8 36.9574 148.8 37.6105C148.8 38.2637 147.992 38.7951 147 38.7951Z" fill="#FF6666"/>
<path d="M17.1953 52.7233C18.0763 52.7233 18.7905 52.2571 18.7905 51.6821C18.7905 51.1071 18.0763 50.641 17.1953 50.641C16.3143 50.641 15.6001 51.1071 15.6001 51.6821C15.6001 52.2571 16.3143 52.7233 17.1953 52.7233Z" fill="#AD77E3"/>
<path d="M133.908 1.15704H133.092V0.619841C133.092 0.277523 132.67 0 132.15 0C131.63 0 131.208 0.277523 131.208 0.619841V1.15704H130.392C129.872 1.15704 129.45 1.43456 129.45 1.77688C129.45 2.11919 129.872 2.39672 130.392 2.39672H131.208V2.93391C131.208 3.27623 131.63 3.55375 132.15 3.55375C132.67 3.55375 133.092 3.27623 133.092 2.93391V2.39672H133.908C134.428 2.39672 134.85 2.11919 134.85 1.77688C134.85 1.43456 134.428 1.15704 133.908 1.15704Z" fill="#FABE2C"/>
<path d="M21.858 28.6986H21.0418V28.1614C21.0418 27.8191 20.6201 27.5416 20.0999 27.5416C19.5797 27.5416 19.158 27.8191 19.158 28.1614V28.6986H18.3418C17.8216 28.6986 17.3999 28.9761 17.3999 29.3184C17.3999 29.6608 17.8216 29.9383 18.3418 29.9383H19.158V30.4755C19.158 30.8178 19.5797 31.0953 20.0999 31.0953C20.6201 31.0953 21.0418 30.8178 21.0418 30.4755V29.9383H21.858C22.3782 29.9383 22.7999 29.6608 22.7999 29.3184C22.7999 28.9761 22.3782 28.6986 21.858 28.6986Z" fill="#FABE2C"/>
<path d="M112.78 18.6406H111.09V16.9648C111.09 15.897 110.217 15.0312 109.14 15.0312C108.064 15.0312 107.191 15.897 107.191 16.9648V18.6406H105.501C104.424 18.6406 103.551 19.5063 103.551 20.5741C103.551 21.642 104.424 22.5077 105.501 22.5077H107.191V24.1835C107.191 25.2513 108.064 26.117 109.14 26.117C110.217 26.117 111.09 25.2513 111.09 24.1835V22.5077H112.78C113.856 22.5077 114.729 21.642 114.729 20.5741C114.729 19.5063 113.856 18.6406 112.78 18.6406Z" fill="#31BEBE"/>
<path d="M52.9895 50.8669C54.0663 50.8669 54.9392 50.0012 54.9392 48.9333C54.9392 47.8654 54.0663 46.9997 52.9895 46.9997C51.9127 46.9997 51.0398 47.8654 51.0398 48.9333C51.0398 50.0012 51.9127 50.8669 52.9895 50.8669Z" fill="#5ED8D3"/>
<path d="M83.1445 24.0545C84.2213 24.0545 85.0942 23.1888 85.0942 22.1209C85.0942 21.053 84.2213 20.1873 83.1445 20.1873C82.0677 20.1873 81.1948 21.053 81.1948 22.1209C81.1948 23.1888 82.0677 24.0545 83.1445 24.0545Z" fill="#FED843"/>
<path d="M100.822 35.398C101.899 35.398 102.771 34.5323 102.771 33.4644C102.771 32.3965 101.899 31.5308 100.822 31.5308C99.745 31.5308 98.8721 32.3965 98.8721 33.4644C98.8721 34.5323 99.745 35.398 100.822 35.398Z" fill="#AD77E3"/>
<path d="M85.0942 22.1209C85.0942 21.0529 84.2213 20.1873 83.1445 20.1873V24.0545C84.2213 24.0545 85.0942 23.1887 85.0942 22.1209Z" fill="#FABE2C"/>
<path d="M56.109 26.117C52.7405 26.117 50 23.3992 50 20.0585C50 16.7178 52.7405 14 56.109 14C59.4775 14 62.218 16.7178 62.218 20.0585C62.218 23.3992 59.4775 26.117 56.109 26.117Z" fill="#FF6666"/>
<path d="M79.9999 68.0998C79.2453 68.0998 78.5555 67.677 78.2181 67.0077C72.6033 55.8709 52.9621 59.5931 52.7646 59.6321C51.6856 59.8442 50.6371 59.1498 50.4223 58.0803C50.2076 57.0108 50.9064 55.971 51.9847 55.7571C52.213 55.7118 57.6485 54.6542 63.9697 55.1995C71.2004 55.823 76.6704 58.3166 79.9999 62.4671C83.3295 58.3166 88.7994 55.8231 96.0302 55.1995C102.351 54.6538 107.787 55.712 108.015 55.7571C109.094 55.9712 109.794 57.012 109.578 58.0819C109.362 59.1519 108.313 59.8452 107.234 59.6319C107.038 59.5931 87.3965 55.8708 81.7817 67.0077C81.4444 67.677 80.7544 68.0998 79.9999 68.0998Z" fill="#E2DFF4"/>
<path d="M81.7818 67.0077C87.3965 55.8708 107.038 59.5932 107.234 59.6319C108.313 59.8453 109.362 59.1519 109.578 58.0819C109.794 57.012 109.094 55.9712 108.015 55.7571C107.787 55.7118 102.351 54.6538 96.0302 55.1995C88.7995 55.823 83.3296 58.3166 80 62.4671V68.1C80.7545 68.0998 81.4445 67.677 81.7818 67.0077Z" fill="#BEBCDD"/>
<path d="M110.619 67.7521C110.483 67.2082 110.119 66.7485 109.619 66.485C108.864 66.0886 91.5319 57.14 80 63.7822C68.468 57.1412 51.1362 66.0885 50.3805 66.485C49.8812 66.7485 49.5173 67.2082 49.3805 67.7521L47.5889 74.8554L49.7051 76.3446L71.8138 70.6501C71.8138 70.6501 80.3137 83.3842 87.8641 70.6501L112.411 76.9233L112.498 74.8781L110.619 67.7521Z" fill="#F9F9F9"/>
<path d="M112.411 74.856L110.62 67.7521C110.483 67.2082 110.119 66.7478 109.619 66.4854C108.863 66.0884 91.5323 57.1406 80 63.782V77.8466C83.9592 77.8466 87.4881 75.4209 89.2778 72.048L111.516 78.0493L112.499 74.8786L112.411 74.856Z" fill="#E2DFF4"/>
<path d="M112.009 78.7691C111.846 78.7691 111.681 78.7493 111.517 78.7078L89.2779 73.1017C87.488 76.4746 83.9591 78.6368 80 78.6368C76.0409 78.6368 72.5119 76.4746 70.7221 73.1017L48.4834 78.7078C47.4164 78.9763 46.3328 78.3371 46.0618 77.2796C45.7909 76.2221 46.4354 75.1469 47.5019 74.8781L71.4012 68.8535C72.4262 68.595 73.4746 69.1752 73.792 70.1746C74.6492 72.8727 77.1439 74.6855 80 74.6855C82.8561 74.6855 85.3508 72.8727 86.208 70.1746C86.5254 69.1752 87.5741 68.5954 88.5988 68.8535L112.498 74.8781C113.564 75.1469 114.209 76.2221 113.938 77.2796C113.709 78.1737 112.898 78.769 112.009 78.7691Z" fill="#BC8173"/>
<path d="M89.2778 73.1016L111.516 78.7078C111.681 78.7491 111.846 78.7691 112.009 78.7691C112.898 78.769 113.709 78.1737 113.938 77.2796C114.209 76.2221 113.564 75.1469 112.498 74.8781L88.5986 68.8535C87.5738 68.5954 86.5251 69.1752 86.2077 70.1746C85.3506 72.8727 82.8558 74.6855 79.9998 74.6855V78.6369C83.959 78.6369 87.488 76.4747 89.2778 73.1016Z" fill="#865240"/>
<path d="M90.6256 50.1874C89.8453 50.1874 89.1048 49.7298 88.7859 48.9711C88.3626 47.9639 88.843 46.8071 89.8585 46.3876L102.608 41.1191C103.624 40.699 104.79 41.1757 105.213 42.1828C105.637 43.19 105.156 44.3468 104.141 44.7663L91.391 50.0349C91.1405 50.1384 90.8808 50.1874 90.6256 50.1874Z" fill="#FABE2C"/>
<path d="M84.2515 48.08C84.0988 48.08 83.9437 48.0623 83.7884 48.0257C82.7181 47.773 82.0571 46.7077 82.312 45.6462L87.6244 23.5184C87.8793 22.4569 88.9528 21.8015 90.0237 22.0541C91.0941 22.3069 91.7551 23.3722 91.5002 24.4337L86.1878 46.5615C85.97 47.469 85.1529 48.08 84.2515 48.08Z" fill="#FABE2C"/>
<path d="M75.7475 48.0797C74.772 48.0797 73.9198 47.3687 73.7778 46.3831L71.6528 31.6313C71.4973 30.5511 72.2541 29.5503 73.3434 29.396C74.4311 29.2413 75.4416 29.9922 75.5973 31.0725L77.7223 45.8244C77.8778 46.9046 77.121 47.9053 76.0317 48.0597C75.9362 48.0731 75.8413 48.0797 75.7475 48.0797Z" fill="#FED843"/>
<path d="M67.2502 50.1869C66.7404 50.1869 66.2305 49.9939 65.8416 49.6081L53.0918 36.9637C52.3138 36.1922 52.3138 34.9412 53.0918 34.1696C53.8697 33.3982 55.1311 33.3982 55.9091 34.1696L68.6589 46.8141C69.4369 47.5855 69.4369 48.8365 68.6589 49.6081C68.2698 49.9939 67.7601 50.1869 67.2502 50.1869Z" fill="#FED843"/>
</svg>
