<svg width="121" height="120" viewBox="0 0 121 120" fill="none" xmlns="http://www.w3.org/2000/svg">
<g clip-path="url(#clip0_32_88)">
<path d="M60.5002 100.898C59.1574 100.898 57.9299 100.145 57.3296 98.9541C47.3385 79.1373 12.3887 85.7606 12.0372 85.83C10.1173 86.2073 8.25155 84.9717 7.86941 83.0686C7.48728 81.1655 8.73082 79.3154 10.6495 78.9348C11.0558 78.8542 20.7279 76.9722 31.9757 77.9425C44.8422 79.052 54.5755 83.4891 60.5002 90.8746C66.4248 83.4891 76.1581 79.0522 89.0246 77.9425C100.272 76.9715 109.944 78.8544 110.351 78.9348C112.271 79.3156 113.516 81.1676 113.132 83.0714C112.748 84.9755 110.88 86.2092 108.961 85.8295C108.611 85.7606 73.6618 79.137 63.6707 98.9541C63.0704 100.145 61.8427 100.898 60.5002 100.898Z" fill="#E2DFF4"/>
<path d="M63.6707 98.9541C73.6615 79.137 108.611 85.7606 108.961 85.8295C110.88 86.2092 112.748 84.9755 113.132 83.0714C113.516 81.1676 112.271 79.3156 110.351 78.9348C109.944 78.8542 100.272 76.9714 89.0245 77.9424C76.1581 79.052 66.4248 83.4891 60.5001 90.8746V100.898C61.8427 100.898 63.0704 100.145 63.6707 98.9541Z" fill="#BEBCDD"/>
<path d="M114.985 100.279C114.741 99.3108 114.094 98.4928 113.205 98.0241C111.861 97.3186 81.0202 81.3954 60.5001 93.2145C39.98 81.3975 9.13963 97.3184 7.79494 98.0241C6.90636 98.4928 6.25883 99.3108 6.01542 100.279L2.82739 112.918L6.59299 115.568L45.9335 105.435C45.9335 105.435 61.0583 128.095 74.4936 105.435L118.173 116.598L118.328 112.959L114.985 100.279Z" fill="#F9F9F9"/>
<path d="M118.173 112.92L114.985 100.279C114.741 99.3111 114.094 98.4917 113.205 98.0248C111.86 97.3184 81.0209 81.3966 60.5001 93.2143V118.241C67.5452 118.241 73.8246 113.925 77.0091 107.923L116.581 118.602L118.33 112.96L118.173 112.92Z" fill="#E2DFF4"/>
<path d="M117.457 119.883C117.168 119.883 116.874 119.847 116.581 119.773L77.0093 109.798C73.8244 115.8 67.545 119.647 60.5002 119.647C53.4553 119.647 47.1757 115.8 43.991 109.798L4.41907 119.773C2.52044 120.251 0.592265 119.114 0.110162 117.232C-0.37194 115.35 0.774944 113.437 2.67263 112.959L45.1993 102.239C47.0233 101.779 48.8888 102.811 49.4536 104.589C50.9789 109.39 55.418 112.616 60.5002 112.616C65.5823 112.616 70.0214 109.39 71.5467 104.589C72.1115 102.811 73.9775 101.779 75.801 102.239L118.328 112.959C120.225 113.437 121.372 115.35 120.89 117.232C120.482 118.823 119.04 119.882 117.457 119.883Z" fill="#BC8173"/>
<path d="M77.0093 109.798L116.581 119.773C116.874 119.847 117.168 119.883 117.457 119.883C119.039 119.882 120.482 118.823 120.89 117.232C121.372 115.35 120.225 113.437 118.327 112.959L75.8007 102.239C73.9772 101.779 72.1112 102.811 71.5464 104.589C70.0212 109.39 65.582 112.616 60.4999 112.616V119.647C67.545 119.647 73.8246 115.8 77.0093 109.798Z" fill="#865240"/>
<path d="M114.382 8.55506H111.31V5.50822C111.31 3.56669 109.723 1.99265 107.765 1.99265C105.807 1.99265 104.22 3.56669 104.22 5.50822V8.55506H101.148C99.1903 8.55506 97.6031 10.1291 97.6031 12.0706C97.6031 14.0122 99.1903 15.5862 101.148 15.5862H104.22V18.633C104.22 20.5746 105.807 22.1486 107.765 22.1486C109.723 22.1486 111.31 20.5746 111.31 18.633V15.5862H114.382C116.34 15.5862 117.927 14.0122 117.927 12.0706C117.927 10.1291 116.34 8.55506 114.382 8.55506Z" fill="#31BEBE"/>
<path d="M79.4076 69.0239C78.0192 69.0239 76.7014 68.2097 76.134 66.8597C75.3809 65.0675 76.2357 63.009 78.0426 62.2625L100.73 52.8876C102.537 52.1402 104.612 52.9884 105.365 54.7804C106.118 56.5727 105.264 58.6312 103.457 59.3776L80.7695 68.7525C80.3238 68.9367 79.8618 69.0239 79.4076 69.0239Z" fill="#FABE2C"/>
<path d="M68.0654 65.2739C67.7936 65.2739 67.5176 65.2425 67.2413 65.1774C65.3368 64.7276 64.1606 62.832 64.6141 60.9432L74.0671 21.5687C74.5206 19.6799 76.4308 18.5137 78.3365 18.9632C80.2411 19.413 81.4173 21.3086 80.9637 23.1974L71.5107 62.5719C71.1232 64.1867 69.6693 65.2739 68.0654 65.2739Z" fill="#FABE2C"/>
<path d="M52.9333 65.2735C51.1975 65.2735 49.681 64.0083 49.4283 62.2545L45.6471 36.0049C45.3704 34.0828 46.717 32.302 48.6553 32.0274C50.5908 31.7522 52.389 33.0884 52.666 35.0107L56.4472 61.2603C56.7239 63.1824 55.3773 64.9632 53.439 65.2378C53.2691 65.2618 53.1001 65.2735 52.9333 65.2735Z" fill="#FED843"/>
<path d="M37.813 69.0229C36.9058 69.0229 35.9985 68.6796 35.3065 67.9931L12.6193 45.4934C11.235 44.1207 11.235 41.8946 12.6193 40.5217C14.0035 39.149 16.2481 39.149 17.6325 40.5217L40.3197 63.0214C41.7041 64.3941 41.7041 66.6202 40.3197 67.9931C39.6273 68.6796 38.7203 69.0229 37.813 69.0229Z" fill="#FED843"/>
<path d="M5.67285 67.1483C7.63066 67.1483 9.21777 65.5743 9.21777 63.6327C9.21777 61.6911 7.63066 60.1171 5.67285 60.1171C3.71505 60.1171 2.12793 61.6911 2.12793 63.6327C2.12793 65.5743 3.71505 67.1483 5.67285 67.1483Z" fill="#5ED8D3"/>
<path d="M60.5002 18.3985C62.4581 18.3985 64.0452 16.8245 64.0452 14.8829C64.0452 12.9412 62.4581 11.3672 60.5002 11.3672C58.5424 11.3672 56.9553 12.9412 56.9553 14.8829C56.9553 16.8245 58.5424 18.3985 60.5002 18.3985Z" fill="#FED843"/>
<path d="M92.6404 39.023C94.5982 39.023 96.1853 37.449 96.1853 35.5074C96.1853 33.5658 94.5982 31.9918 92.6404 31.9918C90.6826 31.9918 89.0955 33.5658 89.0955 35.5074C89.0955 37.449 90.6826 39.023 92.6404 39.023Z" fill="#AD77E3"/>
<path d="M64.045 14.8829C64.045 12.9411 62.4579 11.3672 60.5001 11.3672V18.3985C62.4579 18.3985 64.045 16.8244 64.045 14.8829Z" fill="#FABE2C"/>
<path d="M11.3446 22.1486C5.21998 22.1486 0.237305 17.2071 0.237305 11.1331C0.237305 5.05914 5.21998 0.117645 11.3446 0.117645C17.4692 0.117645 22.4518 5.05914 22.4518 11.1331C22.4518 17.2071 17.4692 22.1486 11.3446 22.1486Z" fill="#FF6666"/>
</g>
<defs>
<clipPath id="clip0_32_88">
<rect width="121" height="120" fill="white"/>
</clipPath>
</defs>
</svg>
