<svg width="1439" height="980" viewBox="0 0 1439 980" fill="none" xmlns="http://www.w3.org/2000/svg">
<path d="M179.645 161.803L83.5943 133.11C76.6084 131.026 72.6433 123.674 74.7276 116.688L93.9102 52.4477C95.9945 45.4619 103.347 41.4967 110.333 43.5811L206.384 72.2735C213.37 74.3578 217.335 81.7101 215.25 88.6959L196.068 152.936C193.975 159.914 186.623 163.887 179.645 161.803Z" fill="#7DA7E7" fill-opacity="0.28" stroke="white" stroke-opacity="0.1" stroke-width="4" stroke-miterlimit="10" stroke-linecap="round"/>
<path d="M76.9911 109.092L198.331 145.34" stroke="white" stroke-opacity="0.1" stroke-width="4" stroke-miterlimit="10" stroke-linecap="round"/>
<path d="M137.958 137.743C137.437 139.486 135.597 140.479 133.855 139.958C132.112 139.437 131.119 137.597 131.64 135.854C132.161 134.112 134.001 133.119 135.744 133.64C137.486 134.161 138.479 136.001 137.958 137.743Z" fill="#7DA7E7" fill-opacity="0.28"/>
<path d="M145.232 151.533L118.028 143.407L114.363 155.679L141.567 163.805L145.232 151.533Z" fill="#7DA7E7" fill-opacity="0.28" stroke="white" stroke-opacity="0.1" stroke-width="4" stroke-miterlimit="10" stroke-linecap="round"/>
<path d="M104.275 153.368L151.238 167.396" stroke="white" stroke-opacity="0.1" stroke-width="4" stroke-miterlimit="10" stroke-linecap="round"/>
<path d="M1385.98 668.177L1405.79 648.362L1350.89 593.458L1331.07 613.272L1385.98 668.177Z" fill="#7DA7E7" fill-opacity="0.28" stroke="white" stroke-opacity="0.1" stroke-width="3" stroke-miterlimit="10" stroke-linecap="round" stroke-linejoin="round"/>
<path d="M1411.15 673.537L1405.79 648.358L1385.97 668.174L1411.15 673.537Z" fill="#7DA7E7" fill-opacity="0.28" stroke="white" stroke-opacity="0.1" stroke-width="3" stroke-miterlimit="10" stroke-linecap="round" stroke-linejoin="round"/>
<path d="M1408.65 661.789L1399.39 671.034" stroke="white" stroke-opacity="0.1" stroke-width="3" stroke-miterlimit="10" stroke-linecap="round" stroke-linejoin="round"/>
<path d="M1325.23 598.166L1335.77 587.63C1338.33 585.066 1342.49 585.066 1345.05 587.63L1350.88 593.456L1331.06 613.272L1325.23 607.446C1322.67 604.881 1322.67 600.721 1325.23 598.166Z" fill="#7DA7E7" fill-opacity="0.28" stroke="white" stroke-opacity="0.1" stroke-width="3" stroke-miterlimit="10" stroke-linecap="round" stroke-linejoin="round"/>
<path d="M1356.23 598.803L1336.42 618.627" stroke="white" stroke-opacity="0.1" stroke-width="3" stroke-miterlimit="10" stroke-linecap="round" stroke-linejoin="round"/>
<path d="M1395.88 658.266L1346.32 608.719" stroke="white" stroke-opacity="0.1" stroke-width="3" stroke-miterlimit="10" stroke-linecap="round" stroke-linejoin="round"/>
<path d="M1420.87 148.012L1375.85 158.404L1373.83 149.629C1373.36 147.595 1374.62 145.571 1376.66 145.097L1414.31 136.399C1416.35 135.934 1418.37 137.194 1418.84 139.227L1420.87 148.012Z" fill="#7DA7E7" fill-opacity="0.28" stroke="white" stroke-opacity="0.1" stroke-width="3" stroke-miterlimit="10" stroke-linecap="round"/>
<path d="M1406.07 100.824C1425.91 84.8253 1429.03 55.7703 1413.03 35.9279C1397.03 16.0855 1367.98 12.9696 1348.14 28.9684C1328.29 44.9672 1325.18 74.0222 1341.18 93.8646C1357.17 113.707 1386.23 116.823 1406.07 100.824Z" fill="#7DA7E7" fill-opacity="0.28" stroke="white" stroke-opacity="0.1" stroke-width="3" stroke-miterlimit="10"/>
<path d="M1398.58 105.726L1355.54 24.0797L1350.17 14.1718C1322.11 28.9611 1311.36 63.6923 1326.15 91.7503C1340.94 119.808 1375.67 130.559 1403.73 115.77L1398.47 105.794" fill="#7DA7E7" fill-opacity="0.28"/>
<path d="M1398.58 105.726L1355.54 24.0797L1350.17 14.1718C1322.11 28.9611 1311.36 63.6923 1326.15 91.7503C1340.94 119.808 1375.67 130.559 1403.73 115.77L1398.47 105.794" stroke="white" stroke-opacity="0.1" stroke-width="3" stroke-miterlimit="10" stroke-linecap="round" stroke-linejoin="round"/>
<path d="M1365.03 41.9702C1379.12 34.5407 1388.42 24.5019 1385.81 19.5478C1383.2 14.5937 1369.66 16.6003 1355.57 24.0297C1341.48 31.4592 1332.17 41.4981 1334.78 46.4522C1337.4 51.4063 1350.94 49.3996 1365.03 41.9702Z" fill="#7DA7E7" fill-opacity="0.28" stroke="white" stroke-opacity="0.1" stroke-width="3" stroke-miterlimit="10"/>
<path d="M1368.34 110.21C1378.28 112.128 1388.93 110.821 1398.58 105.726C1408.24 100.632 1415.34 92.593 1419.38 83.3048C1409.43 81.3872 1398.79 82.6947 1389.13 87.7891C1379.46 92.8835 1372.37 100.922 1368.34 110.21Z" fill="#7DA7E7" fill-opacity="0.28" stroke="white" stroke-opacity="0.1" stroke-width="3" stroke-miterlimit="10"/>
<path d="M1398.62 105.676C1409.89 99.7335 1409.39 76.6384 1397.5 54.0917C1385.61 31.5451 1366.84 18.0848 1355.57 24.0273C1344.3 29.9699 1344.8 53.0649 1356.69 75.6116C1368.57 98.1583 1387.35 111.619 1398.62 105.676Z" fill="#7DA7E7" fill-opacity="0.28" stroke="white" stroke-opacity="0.1" stroke-width="3" stroke-miterlimit="10"/>
<path d="M1336.24 86.4236L1417.89 43.3824" stroke="white" stroke-opacity="0.1" stroke-width="3" stroke-miterlimit="10"/>
<path d="M1390.47 120.796L1395.23 140.67" stroke="white" stroke-opacity="0.1" stroke-width="3" stroke-miterlimit="10"/>
<path d="M1370.45 160.254L1427.83 146.491" stroke="white" stroke-opacity="0.1" stroke-width="3" stroke-miterlimit="10" stroke-linecap="round"/>
<path d="M103.099 956.598L70.7514 945.612C67.3333 944.454 65.5085 940.74 66.6664 937.322C67.8243 933.903 71.5388 932.079 74.9477 933.236L107.295 944.223C110.713 945.381 112.538 949.095 111.38 952.504C110.222 955.931 106.517 957.765 103.099 956.598Z" fill="#7DA7E7" fill-opacity="0.28" stroke="white" stroke-opacity="0.1" stroke-width="3" stroke-miterlimit="10"/>
<path d="M98.8467 969.122L66.4996 958.136C63.0815 956.978 61.2566 953.264 62.4145 949.855C63.5724 946.437 67.2869 944.612 70.7051 945.77L103.052 956.747C106.47 957.905 108.295 961.619 107.137 965.037C105.97 968.455 102.265 970.28 98.8467 969.122Z" fill="#7DA7E7" fill-opacity="0.28" stroke="white" stroke-opacity="0.1" stroke-width="3" stroke-miterlimit="10"/>
<path d="M70.0938 899.453C70.1308 899.565 70.1586 899.667 70.1957 899.778C70.9182 902.084 75.1793 916.702 73.4008 932.921L108.101 944.371C116.326 930.281 128.452 921.083 130.407 919.657C130.499 919.592 130.592 919.527 130.675 919.462C131.62 918.786 132.537 918.063 133.426 917.294C138.651 912.783 142.764 906.846 145.079 899.824C151.906 879.149 140.679 856.852 120.004 850.025C99.3285 843.198 77.0319 854.425 70.2049 875.101C67.8799 882.131 67.6483 889.347 69.1675 896.082C69.4268 897.212 69.7325 898.342 70.0938 899.453Z" fill="#7DA7E7" fill-opacity="0.28" stroke="white" stroke-opacity="0.1" stroke-width="3" stroke-miterlimit="10"/>
<path d="M68.2688 958.896C67.8798 965.75 72.1038 972.281 78.9401 974.541C85.6837 976.764 92.8627 974.124 96.6791 968.538L68.2688 958.896Z" fill="#7DA7E7" fill-opacity="0.28" stroke="white" stroke-opacity="0.1" stroke-width="3" stroke-miterlimit="10"/>
<path d="M84.2664 936.321L94.5764 905.077C95.5953 902.001 93.9186 898.685 90.8433 897.666C87.7679 896.647 84.4516 898.324 83.4327 901.399C82.4137 904.474 84.0904 907.791 87.1658 908.81L99.5414 912.895" fill="#7DA7E7" fill-opacity="0.28"/>
<path d="M84.2664 936.321L94.5764 905.077C95.5953 902.001 93.9186 898.685 90.8433 897.666C87.7679 896.647 84.4516 898.324 83.4327 901.399C82.4137 904.474 84.0904 907.791 87.1658 908.81L99.5414 912.895" stroke="white" stroke-opacity="0.1" stroke-width="3" stroke-miterlimit="10"/>
<path d="M97.8649 940.814L108.175 909.569C109.194 906.493 112.51 904.826 115.585 905.836C118.661 906.855 120.328 910.171 119.318 913.246C118.3 916.322 114.983 917.989 111.908 916.979L99.5322 912.894" fill="#7DA7E7" fill-opacity="0.28"/>
<path d="M97.8649 940.814L108.175 909.569C109.194 906.493 112.51 904.826 115.585 905.836C118.661 906.855 120.328 910.171 119.318 913.246C118.3 916.322 114.983 917.989 111.908 916.979L99.5322 912.894" stroke="white" stroke-opacity="0.1" stroke-width="3" stroke-miterlimit="10"/>
<path d="M152.407 910.588L162.856 914.043" stroke="white" stroke-opacity="0.1" stroke-width="3" stroke-miterlimit="10" stroke-linecap="round"/>
<path d="M157.196 897.425L168.08 895.785" stroke="white" stroke-opacity="0.1" stroke-width="3" stroke-miterlimit="10" stroke-linecap="round"/>
<path d="M145.098 921.88L152.86 929.679" stroke="white" stroke-opacity="0.1" stroke-width="3" stroke-miterlimit="10" stroke-linecap="round"/>
<path d="M55.3558 878.556L44.907 875.11" stroke="white" stroke-opacity="0.1" stroke-width="3" stroke-miterlimit="10" stroke-linecap="round"/>
<path d="M59.3483 865.124L51.5858 857.324" stroke="white" stroke-opacity="0.1" stroke-width="3" stroke-miterlimit="10" stroke-linecap="round"/>
<path d="M54.5129 891.978L43.6379 893.618" stroke="white" stroke-opacity="0.1" stroke-width="3" stroke-miterlimit="10" stroke-linecap="round"/>
<path d="M41.9358 358.087L2 377.396L81.599 542.025L121.535 522.715L41.9358 358.087Z" fill="#7DA7E7" fill-opacity="0.28" stroke="white" stroke-opacity="0.1" stroke-width="4" stroke-miterlimit="10" stroke-linecap="round" stroke-linejoin="round"/>
<path d="M51.4653 377.842L31.5068 387.488" stroke="white" stroke-opacity="0.1" stroke-width="4" stroke-miterlimit="10" stroke-linecap="round" stroke-linejoin="round"/>
<path d="M69.9109 415.982L49.9386 425.642" stroke="white" stroke-opacity="0.1" stroke-width="4" stroke-miterlimit="10" stroke-linecap="round" stroke-linejoin="round"/>
<path d="M88.3566 454.123L68.3842 463.783" stroke="white" stroke-opacity="0.1" stroke-width="4" stroke-miterlimit="10" stroke-linecap="round" stroke-linejoin="round"/>
<path d="M106.788 492.277L86.8298 501.923" stroke="white" stroke-opacity="0.1" stroke-width="4" stroke-miterlimit="10" stroke-linecap="round" stroke-linejoin="round"/>
<path d="M57.5723 390.472L47.593 395.288" stroke="white" stroke-opacity="0.1" stroke-width="4" stroke-miterlimit="10" stroke-linecap="round" stroke-linejoin="round"/>
<path d="M63.7347 403.227L53.7555 408.057" stroke="white" stroke-opacity="0.1" stroke-width="4" stroke-miterlimit="10" stroke-linecap="round" stroke-linejoin="round"/>
<path d="M76.0456 428.682L66.0664 433.498" stroke="white" stroke-opacity="0.1" stroke-width="4" stroke-miterlimit="10" stroke-linecap="round" stroke-linejoin="round"/>
<path d="M82.208 441.437L72.2288 446.267" stroke="white" stroke-opacity="0.1" stroke-width="4" stroke-miterlimit="10" stroke-linecap="round" stroke-linejoin="round"/>
<path d="M94.519 466.891L84.5397 471.707" stroke="white" stroke-opacity="0.1" stroke-width="4" stroke-miterlimit="10" stroke-linecap="round" stroke-linejoin="round"/>
<path d="M100.695 479.647L90.7022 484.477" stroke="white" stroke-opacity="0.1" stroke-width="4" stroke-miterlimit="10" stroke-linecap="round" stroke-linejoin="round"/>
<path d="M1366.73 944.953C1396.84 944.953 1421.24 933.383 1421.24 919.111C1421.24 904.838 1396.84 893.269 1366.73 893.269C1336.62 893.269 1312.21 904.838 1312.21 919.111C1312.21 933.383 1336.62 944.953 1366.73 944.953Z" fill="#7DA7E7" fill-opacity="0.28" stroke="white" stroke-opacity="0.1" stroke-width="3" stroke-miterlimit="10" stroke-linecap="round" stroke-linejoin="round"/>
<path d="M1388.77 932.581C1404.43 906.865 1407.24 880.001 1395.05 872.58C1382.86 865.158 1360.29 879.989 1344.63 905.706C1328.97 931.422 1326.16 958.286 1338.35 965.707C1350.54 973.129 1373.12 958.298 1388.77 932.581Z" fill="#7DA7E7" fill-opacity="0.28" stroke="white" stroke-opacity="0.1" stroke-width="3" stroke-miterlimit="10" stroke-linecap="round" stroke-linejoin="round"/>
<path d="M1395.04 965.695C1407.23 958.274 1404.42 931.41 1388.76 905.694C1373.11 879.977 1350.53 865.146 1338.34 872.568C1326.15 879.989 1328.96 906.853 1344.62 932.569C1360.28 958.286 1382.85 973.117 1395.04 965.695Z" fill="#7DA7E7" fill-opacity="0.28" stroke="white" stroke-opacity="0.1" stroke-width="3" stroke-miterlimit="10" stroke-linecap="round" stroke-linejoin="round"/>
<path d="M1366.73 925.952C1370.5 925.952 1373.57 922.889 1373.57 919.111C1373.57 915.333 1370.5 912.27 1366.73 912.27C1362.95 912.27 1359.88 915.333 1359.88 919.111C1359.88 922.889 1362.95 925.952 1366.73 925.952Z" fill="#7DA7E7" fill-opacity="0.28" stroke="white" stroke-opacity="0.1" stroke-width="3" stroke-miterlimit="10" stroke-linecap="round" stroke-linejoin="round"/>
</svg>
