<svg width="68" height="68" viewBox="0 0 68 68" fill="none" xmlns="http://www.w3.org/2000/svg">
<g clip-path="url(#clip0_148_701)">
<path d="M52.0625 0H15.9375C7.13546 0 0 7.13546 0 15.9375V52.0625C0 60.8645 7.13546 68 15.9375 68H52.0625C60.8645 68 68 60.8645 68 52.0625V15.9375C68 7.13546 60.8645 0 52.0625 0Z" fill="#F4F2ED"/>
<path d="M11.0596 53.9322H19.5112V33.4066L7.4375 24.3514V50.3102C7.4375 52.3143 9.06153 53.9322 11.0596 53.9322Z" fill="#4285F4"/>
<path d="M48.4885 53.9322H56.9404C58.9446 53.9322 60.5625 52.3082 60.5625 50.3102V24.3512L48.4885 33.4066" fill="#34A853"/>
<path d="M48.4885 17.7105V33.4066L60.5625 24.3514V19.5213C60.5625 15.0421 55.4492 12.4883 51.8694 15.1749" fill="#FBBC04"/>
<path d="M19.5115 33.4066V17.7108L34 28.5767L48.4885 17.7103V33.4063L34 44.2731" fill="#EA4335"/>
<path d="M7.4375 19.5216V24.3512L19.5112 33.4066V17.7108L16.1306 15.1752C12.5447 12.4886 7.4375 15.0423 7.4375 19.5216Z" fill="#C5221F"/>
</g>
<defs>
<clipPath id="clip0_148_701">
<rect width="68" height="68" fill="white"/>
</clipPath>
</defs>
</svg>
