<svg width="68" height="68" viewBox="0 0 68 68" fill="none" xmlns="http://www.w3.org/2000/svg">
<rect width="68" height="68" rx="10" fill="#F4F2ED"/>
<g clip-path="url(#clip0_148_719)">
<path d="M34 6C18.2268 6 6 17.5539 6 33.16C6 41.3231 9.34534 48.3767 14.7937 53.2489C15.2509 53.6582 15.527 54.2318 15.5458 54.8453L15.6983 59.8263C15.7471 61.4148 17.3879 62.4487 18.8417 61.8068L24.3993 59.3531C24.8703 59.1455 25.3986 59.1068 25.8949 59.2435C28.4488 59.9457 31.1667 60.3198 34 60.3198C49.7732 60.3198 62 48.7658 62 33.1598C62 17.5537 49.7732 6 34 6Z" fill="url(#paint0_radial_148_719)"/>
<path d="M17.1862 41.1028L25.4112 28.0537C26.7193 25.9778 29.5211 25.4609 31.4841 26.9331L38.0259 31.8396C38.318 32.0588 38.6736 32.1767 39.0388 32.1756C39.404 32.1746 39.7589 32.0545 40.0497 31.8337L48.8846 25.1286C50.0637 24.2337 51.6032 25.6449 50.814 26.8972L42.589 39.9465C41.2806 42.0222 38.4787 42.5391 36.5158 41.0669L29.9739 36.1604C29.6818 35.9414 29.3263 35.8235 28.9612 35.8245C28.5961 35.8256 28.2413 35.9456 27.9505 36.1663L19.1151 42.8714C17.9361 43.7661 16.3967 42.3552 17.1862 41.1028Z" fill="white"/>
</g>
<defs>
<radialGradient id="paint0_radial_148_719" cx="0" cy="0" r="1" gradientUnits="userSpaceOnUse" gradientTransform="translate(1083.83 5576.04) scale(6101.76 6101.76)">
<stop stop-color="#0099FF"/>
<stop offset="0.60975" stop-color="#A033FF"/>
<stop offset="0.93482" stop-color="#FF5280"/>
<stop offset="1" stop-color="#FF7061"/>
</radialGradient>
<clipPath id="clip0_148_719">
<rect width="56" height="56" fill="white" transform="translate(6 6)"/>
</clipPath>
</defs>
</svg>
