<svg width="17" height="16" viewBox="0 0 17 16" fill="none" xmlns="http://www.w3.org/2000/svg">
<g clip-path="url(#clip0_13_315)">
<path d="M16.4583 6.13748C16.3536 5.81349 16.0662 5.58339 15.7262 5.55275L11.1082 5.13342L9.28209 0.859266C9.14744 0.546026 8.84079 0.343262 8.50008 0.343262C8.15938 0.343262 7.85273 0.546026 7.71808 0.859999L5.89198 5.13342L1.27321 5.55275C0.933847 5.58412 0.647219 5.81349 0.541869 6.13748C0.43652 6.46146 0.533812 6.81682 0.790533 7.04082L4.28122 10.1022L3.2519 14.6364C3.17658 14.9697 3.30598 15.3143 3.5826 15.5143C3.73128 15.6217 3.90524 15.6764 4.08066 15.6764C4.23191 15.6764 4.38193 15.6356 4.51658 15.5551L8.50008 13.1743L12.4821 15.5551C12.7735 15.7304 13.1408 15.7144 13.4168 15.5143C13.6936 15.3137 13.8229 14.969 13.7475 14.6364L12.7182 10.1022L16.2089 7.04143C16.4656 6.81682 16.5636 6.46207 16.4583 6.13748Z" fill="#FFC107"/>
</g>
<defs>
<clipPath id="clip0_13_315">
<rect width="16" height="16" fill="white" transform="translate(0.5)"/>
</clipPath>
</defs>
</svg>
